{"title":"Fame (1980) DVDRip XviD AC3 peaSoup","uid":8888215,"size":1808324328,"categoryP":"video","categoryS":"movies","magnet":"?xt=urn:btih:96170ec4c177e309ce29bd3c5a24517d005b6062&amp;dn=Fame+%281980%29+DVDRip+XviD+AC3+peaSoup&amp;tr=udp%3A%2F%2Ftracker.openbittorrent.com%3A80&amp;tr=udp%3A%2F%2Fopen.demonii.com%3A1337&amp;tr=udp%3A%2F%2Ftracker.coppersurfer.tk%3A6969&amp;tr=udp%3A%2F%2Fexodus.desync.com%3A6969","seeders":15,"leechers":1,"uploader":"peaSoup","files":-1,"time":1378518405,"description":"Storyline\n\nAt the New York City High School for the Performing Arts, students get specialized training that often leads to success as actors, singers, etc. This movie follows four students from the time when they audition to get into the school, through graduation. They are the brazen Coco Hernandez, shy Doris Finsecker, sensitive gay Montgomery MacNeil, and brash, abrasive Raul Garcia.                                &lt;a href=&quot; http://imageshack.us/a/img853/9772/6947.jpg&quot; rel=&quot;nofollow&quot; target=&quot;_NEW&quot;&gt; http://imageshack.us/a/img853/9772/6947.jpg&lt;/a&gt;                                         &lt;a href=&quot; http://imageshack.us/a/img801/4265/gv76.jpg&quot; rel=&quot;nofollow&quot; target=&quot;_NEW&quot;&gt; http://imageshack.us/a/img801/4265/gv76.jpg&lt;/a&gt;                                         &lt;a href=&quot; http://imageshack.us/a/img571/7876/9pst.jpg&quot; rel=&quot;nofollow&quot; target=&quot;_NEW&quot;&gt; http://imageshack.us/a/img571/7876/9pst.jpg&lt;/a&gt;                                         &lt;a href=&quot; http://imageshack.us/a/img545/2654/6lwi.jpg&quot; rel=&quot;nofollow&quot; target=&quot;_NEW&quot;&gt; http://imageshack.us/a/img545/2654/6lwi.jpg&lt;/a&gt;                                                                     &lt;a href=&quot; http://imageshack.us/a/img96/4333/b2o2.jpg&quot; rel=&quot;nofollow&quot; target=&quot;_NEW&quot;&gt; http://imageshack.us/a/img96/4333/b2o2.jpg&lt;/a&gt;                                                                      Format                                   : AVI\nFormat/Info                              : Audio Video Interleave\nFormat profile                           : OpenDML\nFile size                                : 1.67 GiB\nDuration                                 : 2h 8mn\nOverall bit rate                         : 1 863 Kbps\nMovie name                               : Fame (1980) DVDRip XviD AC3 peaSoup\nWriting application                      : Lavf53.21.0\nOriginal source form/Name                : FAME\n\nVideo\nID                                       : 0\nFormat                                   : MPEG-4 Visual\nFormat profile                           : Advanced Simple@L5\nFormat settings, BVOP                    : 2\nFormat settings, QPel                    : No\nFormat settings, GMC                     : No warppoints\nFormat settings, Matrix                  : Default (H.263)\nMuxing mode                              : Packed bitstream\nCodec ID                                 : XVID\nCodec ID/Hint                            : XviD\nDuration                                 : 2h 8mn\nBit rate                                 : 1 468 Kbps\nWidth                                    : 720 pixels\nHeight                                   : 408 pixels\nDisplay aspect ratio                     : 16:9\nFrame rate                               : 25.000 fps\nColor space                              : YUV\nChroma subsampling                       : 4:2:0\nBit depth                                : 8 bits\nScan type                                : Progressive\nCompression mode                         : Lossy\nBits/(Pixel*Frame)                       : 0.200\nStream size                              : 1.31 GiB (79%)\nWriting library                          : XviD 1.2.1 (UTC 2008-12-04)\n\nAudio\nID                                       : 1\nFormat                                   : AC-3\nFormat/Info                              : Audio Coding 3\nMode extension                           : CM (complete main)\nFormat settings, Endianness              : Big\nCodec ID                                 : 2000\nDuration                                 : 2h 8mn\nBit rate mode                            : Constant\nBit rate                                 : 384 Kbps\nChannel(s)                               : 6 channels\nChannel positions                        : Front: L C R, Side: L R, LFE\nSampling rate                            : 48.0 KHz\nBit depth                                : 16 bits\nCompression mode                         : Lossy\nStream size                              : 352 MiB (21%)\nAlignment                                : Aligned on interleaves\nInterleave, duration                     : 32 ms (0.80 video frame)\n\n                                                       \n\n","torrent":{"xt":"urn:btih:96170ec4c177e309ce29bd3c5a24517d005b6062","amp;dn":"Fame+%281980%29+DVDRip+XviD+AC3+peaSoup","amp;tr":["udp%3A%2F%2Ftracker.openbittorrent.com%3A80","udp%3A%2F%2Fopen.demonii.com%3A1337","udp%3A%2F%2Ftracker.coppersurfer.tk%3A6969","udp%3A%2F%2Fexodus.desync.com%3A6969"],"infoHash":"96170ec4c177e309ce29bd3c5a24517d005b6062","infoHashBuffer":{"type":"Buffer","data":[150,23,14,196,193,119,227,9,206,41,189,60,90,36,81,125,0,91,96,98]},"announce":[],"urlList":[]}}